Coordinates
version=1
nRows=6
nColumns=36
inDegrees=yes

Units are S.I. units (second, meters, Newtons, ...)
If the header above contains a line with 'inDegrees', this indicates whether rotational values are in degrees (yes) or radians (no).

endheader
time	pelvis_tilt	pelvis_list	pelvis_rotation	pelvis_tx	pelvis_ty	pelvis_tz	hip_flexion_r	hip_adduction_r	hip_rotation_r	knee_angle_r	knee_angle_r_beta	ankle_angle_r	subtalar_angle_r	mtp_angle_r	hip_flexion_l	hip_adduction_l	hip_rotation_l	knee_angle_l	knee_angle_l_beta	ankle_angle_l	subtalar_angle_l	mtp_angle_l	lumbar_extension	lumbar_bending	lumbar_rotation	arm_flex_r	arm_add_r	arm_rot_r	elbow_flex_r	pro_sup_r	arm_flex_l	arm_add_l	arm_rot_l	elbow_flex_l	pro_sup_l
      2.98750000	     -5.10305542	      0.65171212	     -2.01015476	      0.38276861	      0.90948970	     -0.08626196	      1.86820265	     -2.57998935	     -4.04183309	      0.34850861	      0.00608262	      3.99889995	     -3.14255503	     -7.49999987	      2.24488354	      1.98577999	     -3.50734742	      1.55525891	      0.02714439	      2.06153828	     -9.92027280	     -7.49999987	     -1.45684624	      1.23181979	      1.19804769	      0.27898012	     -9.41879884	     10.71780531	     32.10606524	     73.33293728	      1.58609984	     -7.92087258	     13.71745758	     32.26563333	     78.85208285
      2.99166670	     -5.07525136	      0.63477822	     -1.94742910	      0.38233329	      0.90378150	     -0.08534078	      1.82608396	     -2.51722927	     -4.05488792	      0.33990914	      0.00593253	      4.17170569	     -3.11041852	     -7.49999987	      2.22554508	      1.93472224	     -3.31014447	      1.54022116	      0.02688193	      1.94080315	    -10.25640287	     -7.49999987	     -1.54417372	      1.20863695	      1.17940562	      0.20580696	     -9.35826970	     10.64357201	     32.22265842	     72.85542345	      1.54209387	     -8.03271082	     13.66019320	     32.51102430	     78.22360880
      2.99583330	     -5.02999430	      0.62769457	     -1.97804457	      0.38251034	      0.90640297	     -0.08594079	      1.78662785	     -2.45716223	     -4.01883013	      0.33609002	      0.00586588	      4.38555857	     -2.91924744	     -7.49999987	      2.18578181	      1.87468836	     -3.37540931	      1.53115459	      0.02672369	      1.96670446	    -10.16263465	     -7.49999987	     -1.64061538	      1.17116106	      1.24172875	      0.18985198	     -9.30213364	     10.61214734	     32.15790290	     72.50769433	      1.46573433	     -8.08627012	     13.67248962	     32.61521775	     77.74227641
      3.00000000	     -5.05467105	      0.62874295	     -2.02598764	      0.38260867	      0.90533731	     -0.08556560	      1.80875568	     -2.42240988	     -3.96098937	      0.33612836	      0.00586655	      4.48079399	     -2.93948363	     -7.49999987	      2.21230940	      1.82057028	     -3.57314458	      1.50339615	      0.02623921	      1.96302852	    -10.01228730	     -7.49999987	     -1.61299548	      1.13150662	      1.33040573	      0.13545448	     -9.26066857	     10.63075940	     32.10339932	     72.52440950	      1.39596704	     -8.13199869	     13.67205809	     32.60533520	     77.76480723
      3.00416670	     -5.17058891	      0.63023814	     -2.00555590	      0.38252425	      0.90544091	     -0.08527107	      1.91842043	     -2.39773768	     -4.02783720	      0.33321886	      0.00581577	      4.42225001	     -3.10491696	     -7.49999987	      2.35097175	      1.76839455	     -3.43071220	      1.45961186	      0.02547503	      1.76520744	    -10.16308295	     -7.49999987	     -1.46582920	      1.09090337	      1.38628704	      0.11736656	     -9.17466113	     10.55557549	     31.80708345	     71.95876775	      1.33232585	     -8.12860473	     13.63335734	     32.63160710	     77.02672198
      3.00833330	     -5.02019264	      0.63606320	     -2.03684559	      0.38158526	      0.90716694	     -0.08558656	      1.75310373	     -2.39489398	     -3.83934875	      0.32605424	      0.00569072	      4.57295213	     -3.40415882	     -7.49999987	      2.20943870	      1.72796004	     -3.52520876	      1.41823274	      0.02475283	      1.95038463	     -9.82816103	     -7.49999987	     -1.71345147	      1.02752025	      1.49560959	      0.12844167	     -9.13449191	     10.55981419	     31.75096990	     71.18812456	      1.35641187	     -8.18669913	     13.65664260	     32.80465065	     75.97106482
